<?xml version="1.0" encoding="UTF-8"?>
<!-- Created with Inkscape (http://www.inkscape.org/) -->
<svg width="34mm" height="7mm" version="1.1" viewBox="0 0 34 7" xml:space="preserve" xmlns="http://www.w3.org/2000/svg" xmlns:xlink="http://www.w3.org/1999/xlink"><defs><linearGradient id="linearGradient9" x1="10.943" x2="23.813" y1="6.0111" y2="5.9934" gradientTransform="translate(.1293 .68355)" gradientUnits="userSpaceOnUse"><stop stop-color="#6260eb" offset="0"/><stop stop-color="#d463ff" offset="1"/></linearGradient><linearGradient id="linearGradient363-0"><stop stop-color="#f1f5f9" offset="0"/><stop stop-color="#cbd5e1" offset="1"/></linearGradient><filter id="filter349-3" x="0" y="0" width="1" height="1" color-interpolation-filters="sRGB"><feTurbulence baseFrequency="12.8783 40.3704" result="turbulence" seed="105" type="fractalNoise"/><feComposite in="SourceGraphic" in2="turbulence" operator="in" result="composite1"/><feColorMatrix result="color" values="1 0 0 0 0 0 1 0 0 0 0 0 1 0 0 0 0 0 2.0344 -0 "/><feFlood flood-color="rgb(21,40,64)" flood-opacity="0" result="flood"/><feMerge result="merge"><feMergeNode in="flood"/><feMergeNode in="color"/></feMerge><feComposite in2="SourceGraphic" operator="in" result="composite2"/></filter><linearGradient id="linearGradient13-3" x1="1.1946" x2="30.807" y1="16" y2="16" gradientUnits="userSpaceOnUse" xlink:href="#linearGradient363-0"/><linearGradient id="linearGradient25" x1="8.4901" x2="24.317" y1="8.3598" y2="23.386" gradientUnits="userSpaceOnUse"><stop stop-color="#6e57eb" offset="0"/><stop stop-color="#ff63eb" offset="1"/></linearGradient><linearGradient id="linearGradient26" x1="27.782" x2="4.3586" y1="23.697" y2="9.5782" gradientUnits="userSpaceOnUse"><stop stop-opacity=".56191" offset="0"/><stop stop-opacity="0" offset="1"/></linearGradient></defs><g transform="translate(-2.4686 -3.1966)"><text x="10.80984" y="7.9495497" fill="url(#linearGradient9)" font-family="Inter" font-size="207.87px" font-weight="900" letter-spacing="-.13229px" stroke-opacity="0" stroke-width=".26458" xml:space="preserve"><tspan x="10.80984" y="7.9495497" fill="url(#linearGradient9)" font-family="Sans" font-size="3.5278px" font-weight="900" letter-spacing="-.13229px" stroke-width=".26458" style="font-variant-caps:normal;font-variant-east-asian:normal;font-variant-ligatures:normal;font-variant-numeric:normal">PLANET</tspan></text><text x="24.205399" y="7.9838595" fill="#ffffff" font-family="Inter" font-size="207.87px" font-weight="900" letter-spacing="-.13229px" opacity=".8" stroke-opacity="0" stroke-width=".26458" xml:space="preserve"><tspan x="24.205399" y="7.9838595" fill="#ffffff" font-family="Inter" font-size="3.5278px" font-weight="900" letter-spacing="-.13229px" stroke-width=".26458" style="font-variant-caps:normal;font-variant-east-asian:normal;font-variant-ligatures:normal;font-variant-numeric:normal">BOARD</tspan></text><g transform="matrix(.26458 0 0 .26458 2.3025 2.4633)"><g stroke-width="0"><circle cx="16" cy="16" r="11" fill="url(#linearGradient25)"/><circle cx="16" cy="16" r="11" fill="url(#linearGradient26)" filter="url(#filter349-3)"/></g><g fill="url(#linearGradient13-3)" stroke-opacity="0"><path d="m26.381 12.375a11 11 0 0 1 0.11524 0.33203 11 11 0 0 1 0.15234 0.53516 11 11 0 0 1 0.12695 0.54297 11 11 0 0 1 0.09766 0.54883 11 11 0 0 1 0.07031 0.55274 11 11 0 0 1 0.0293 0.375 4.634 15.9 67.6 0 0 3.7285-5.3203 4.634 15.9 67.6 0 0-6.3926-1.1484 11 11 0 0 1 0.03711 0.041016 11 11 0 0 1 0.35352 0.43359 11 11 0 0 1 0.33008 0.44922 11 11 0 0 1 0.30664 0.46484 11 11 0 0 1 0.28125 0.48047 11 11 0 0 1 0.25781 0.49414 11 11 0 0 1 0.04687 0.10156 1.4272 12.125 67.6 0 1 1.2891 0.12109 1.4272 12.125 67.6 0 1-0.83008 0.99609z" opacity=".75"/><path d="m6.0879 20.74a11 11 0 0 0 0.6582 1.207 11 11 0 0 0 0.94141 1.2559 11 11 0 0 0 0.00391 0.0039 4.634 15.9 67.6 0 0 10.074-2.9219 4.634 15.9 67.6 0 0 9.207-5.0234 11 11 0 0 0-0.0293-0.375 11 11 0 0 0-0.07031-0.55274 11 11 0 0 0-0.09766-0.54883 11 11 0 0 0-0.12695-0.54296 11 11 0 0 0-0.15234-0.53516 11 11 0 0 0-0.11524-0.33203 1.4272 12.125 67.6 0 1-9.8359 4.9453 1.4272 12.125 67.6 0 1-10.457 3.4199z" opacity=".75"/><path d="m5.0508 16.725a4.634 15.9 67.6 0 0-3.752 5.334 4.634 15.9 67.6 0 0 6.3926 1.1484 11 11 0 0 1-0.0039062-0.003906 11 11 0 0 1-0.94141-1.2559 11 11 0 0 1-0.6582-1.207 1.4272 12.125 67.6 0 1-1.2988-0.11914 1.4272 12.125 67.6 0 1 0.84766-1.0078 11 11 0 0 1-0.19141-0.51367 11 11 0 0 1-0.33398-1.5332 11 11 0 0 1-0.060547-0.8418z" opacity=".75"/></g></g></g></svg>
